<svg xmlns="http://www.w3.org/2000/svg" viewBox="0 0 44 44" width="100%" height="100%">
  <g fill="none" stroke="#000000" stroke-width="1.5" stroke-linecap="round" stroke-linejoin="round">
    
    <!-- Centurion Crest on Mane (Gold/Bronze Plume) -->
    <path d="M 13 8 C 13 4, 25 4, 28 8" stroke="#D4AF37" stroke-width="3.5" />
    
    <!-- Horse Head & Neck (Robust, muscular build) -->
    <path d="M 31 16 C 31 12, 26 9, 23 9 C 20 9, 17 11, 15 14 C 13 17, 11 21, 14 24 C 16 26, 19 25, 21 23 C 21 25, 18 28, 16 31 L 16 35 L 31 35 C 31 28, 32 21, 31 16 Z" fill="#212121" />
    
    <!-- Horse Muzzle/Snout Detail -->
    <path d="M 14 24 Q 16 21 19 22" stroke="#000000" stroke-width="1" />
    <circle cx="15" cy="22" r="0.75" fill="#000000" />
    
    <!-- Roman Harness & Phalera Medallion (Gold Accents) -->
    <path d="M 23 9 C 22 13, 20 17, 18 20" stroke="#000000" stroke-width="1" />
    <path d="M 15 14 Q 21 16 26 18" stroke="#000000" stroke-width="1" />
    <circle cx="21" cy="17" r="2" fill="#AA8010" stroke="#000000" stroke-width="1" />
    
    <!-- Chest/Breastplate Layer (Thick Obsidian Armor) -->
    <path d="M 16 31 Q 23 33 31 31" stroke="#000000" stroke-width="1.5" />
    
    <!-- Pedestal Base -->
    <path d="M 12 35 L 32 35 L 34 39 L 10 39 Z" fill="#212121" />
    <rect x="8" y="39" width="28" height="3" rx="1" fill="#424242" />
    
  </g>
</svg>
