<svg xmlns="http://www.w3.org/2000/svg" viewBox="0 0 44 44" width="100%" height="100%">
  <g fill="none" stroke="#000000" stroke-width="1.5" stroke-linecap="round" stroke-linejoin="round">
    <!-- Stephane (Empress Crown - Radiant White Silver for High Contrast) -->
    <path d="M 14 13 L 17 6 L 22 4 L 27 6 L 30 13 Z" fill="#FFFFFF" />
    <circle cx="22" cy="8" r="1" fill="#D4AF37" stroke="#000000" stroke-width="0.5" />
    
    <!-- Royal Hair & Head -->
    <path d="M 16 13 C 16 10, 28 10, 28 13 Z" fill="#111111" />
    <path d="M 17 13 C 17 16, 27 16, 27 13" fill="#212121" />

    <!-- Draped Palla / Royal Veil (Imperial Tyrian Purple) -->
    <path d="M 15 13 C 12 20, 11 26, 12 35 L 32 35 C 33 26, 32 20, 29 13 Z" fill="#4A148C" />

    <!-- Stola Gown Bodice (Rich Dark Charcoal) -->
    <path d="M 18 16 Q 22 19 26 16 L 28 35 L 16 35 Z" fill="#212121" />
    
    <!-- Draping Folds on Gown -->
    <path d="M 20 20 Q 22 24 24 20" stroke="#000000" stroke-width="1" />
    <path d="M 19 25 Q 22 29 25 25" stroke="#000000" stroke-width="1" />
    <path d="M 18 30 Q 22 34 26 30" stroke="#000000" stroke-width="1" />
    
    <!-- Pedestal Base (Dark Onyx) -->
    <path d="M 12 35 L 32 35 L 34 39 L 10 39 Z" fill="#212121" />
    <rect x="8" y="39" width="28" height="3" rx="1" fill="#424242" />
  </g>
</svg>
