<svg xmlns="http://www.w3.org/2000/svg" viewBox="0 0 44 44" width="100%" height="100%">
  <g fill="none" stroke="#000000" stroke-width="1.6" stroke-linecap="round" stroke-linejoin="round">
    <!-- Pearl finial -->
    <circle cx="22" cy="5" r="1.5" fill="#D4AF37" />
    <!-- Mitre (ogee curve) -->
    <path d="M 22 6.5 L 15 11 Q 15 17 22 19.5 Q 29 17 29 11 Z" fill="#242424" />
    <path d="M 22 8.5 L 22 17.5" stroke="#000000" stroke-width="1" />
    <path d="M 19 11.5 L 25 15.5 M 25 11.5 L 19 15.5" stroke="#D4AF37" stroke-width="1.25" />
    <!-- Neck armor -->
    <path d="M 18 19.5 L 26 19.5 Q 22 21.5 18 19.5 Z" fill="#1C1C1C" />
    <!-- Lorica squamata torso -->
    <path d="M 16 21.5 L 13.5 36 L 30.5 36 L 28 21.5 Z" fill="#242424" />
    <path d="M 18 25.5 C 20 27.5, 24 27.5, 26 25.5" stroke="#000000" stroke-width="1" />
    <path d="M 17 29.5 C 19 31.5, 23 31.5, 25 29.5" stroke="#000000" stroke-width="1" />
    <!-- Mantle drapes -->
    <path d="M 16 21.5 C 14 24.5, 13 30, 15 36" stroke="#5B1A8C" stroke-width="2" />
    <path d="M 28 21.5 C 30 24.5, 31 30, 29 36" stroke="#5B1A8C" stroke-width="2" />
    <path d="M 12 35 Q 11.2 37.2 10 39 L 34 39 Q 32.8 37.2 32 35 Z" fill="#1C1C1C" />
    <rect x="8" y="39" width="28" height="3" rx="1.5" fill="#333333" />
  </g>
</svg>
