<svg xmlns="http://www.w3.org/2000/svg" viewBox="0 0 44 44" width="44" height="44">
  <g fill="none" stroke="#000000" stroke-width="1.5" stroke-linecap="round" stroke-linejoin="round">
    <!-- Bishop's Mitre / Head -->
    <path d="M 22 6 L 15 10.5 L 15 17 Q 22 19.5 29 17 L 29 10.5 L 22 6 Z" fill="#212121" />
    <!-- Roman Shield / Eagle Motif engraved into Head -->
    <path d="M 22 8 L 22 17" stroke="#000000" stroke-width="1" />
    <path d="M 19 11 L 25 15 M 25 11 L 19 15" stroke="#D4AF37" stroke-width="1.25" />
    
    <!-- Top Ornament (Laurel Pearl) -->
    <circle cx="22" cy="5" r="1.5" fill="#D4AF37" />
    
    <!-- Neck Armor -->
    <path d="M 18 19 L 26 19 Q 22 21 18 19 Z" fill="#424242" />
    
    <!-- Torso / Lorica Squamata (Scale-Armor Style) -->
    <path d="M 16 21 L 13.5 35 L 30.5 35 L 28 21 Z" fill="#303030" />
    <path d="M 18 25 C 20 27, 24 27, 26 25" stroke="#000000" stroke-width="1" />
    <path d="M 17 29 C 19 31, 23 31, 25 29" stroke="#000000" stroke-width="1" />
    
    <!-- Decorative Mantle (Imperial Purple Shoulder Drapes) -->
    <path d="M 16 21 C 14 24, 13 30, 15 35" stroke="#4A148C" stroke-width="2" />
    <path d="M 28 21 C 30 24, 31 30, 29 35" stroke="#4A148C" stroke-width="2" />
    
    <!-- Pedestal Base -->
    <path d="M 12 35 L 32 35 L 34 39 L 10 39 Z" fill="#212121" />
    <rect x="8" y="39" width="28" height="3" rx="1" fill="#424242" />
  </g>
</svg>
