<svg xmlns="http://www.w3.org/2000/svg" viewBox="0 0 44 44" width="44" height="44">
  <g fill="none" stroke="#000000" stroke-width="1.5" stroke-linecap="round" stroke-linejoin="round">
    <!-- Top King Cross (Bright Polished Gold) -->
    <path d="M 22 2 L 22 8 M 18 4 L 26 4" stroke="#D4AF37" stroke-width="2.5" />
    
    <!-- Heavy Imperial Crown / Wreath Hybrid Base (Widened) -->
    <path d="M 12 11 L 16 7 L 22 9 L 28 7 L 32 11 Z" fill="#D4AF37" />
    
    <!-- Emperor Head & Hair (Broadened) -->
    <path d="M 14 15 C 14 10, 30 10, 30 15 Z" fill="#111111" />
    <path d="M 15 15 C 15 18.5, 29 18.5, 29 15" fill="#212121" />

    <!-- Imperial Toga / Cape (Thick layers hanging off broad shoulders) -->
    <path d="M 10 21 Q 6 28 8 35 L 14 35 Q 12 26 15 21 Z" fill="#4A148C" />
    <path d="M 29 21 Q 32 26 36 35 L 34 35 Q 38 28 34 21 Z" fill="#4A148C" />

    <!-- Main Cuirass / Torso (Wide, stocky, and heavily built muscle armor) -->
    <path d="M 15 21 Q 22 23 29 21 L 31 35 L 13 35 Z" fill="#212121" />
    
    <!-- Heavy Sculpted Muscle & Belly Plate Lines -->
    <path d="M 18 25 Q 22 27.5 26 25" stroke="#000000" stroke-width="1.5" />
    <path d="M 17 30 Q 22 33 27 30" stroke="#000000" stroke-width="1.5" />

    <!-- Pedestal Base -->
    <path d="M 12 35 L 32 35 L 34 39 L 10 39 Z" fill="#212121" />
    <rect x="8" y="39" width="28" height="3" rx="1" fill="#424242" />
  </g>
</svg>
