<svg xmlns="http://www.w3.org/2000/svg" viewBox="0 0 44 44" width="100%" height="100%">
  <g fill="none" stroke="#000000" stroke-width="1.6" stroke-linecap="round" stroke-linejoin="round">
    <!-- Ear -->
    <path d="M 25.5 9.5 L 27.5 5 L 28.5 9.5 Z" fill="#242424" />
    <!-- Centurion crest plume -->
    <path d="M 12 10 C 12 4, 20 2, 22.5 6.5 C 25 2, 30.5 4, 29.5 10 C 25 7, 18.5 7, 12 10 Z" fill="#5B1A8C" />
    <!-- Horse head & neck -->
    <path d="M 31 17 C 31 13, 26.5 9.5, 23 9.5 C 20 9.5, 17 11.5, 15 14.5 C 13 17.5, 11 21.5, 14 24.5 C 16 26.5, 19 25.5, 21 23.5 C 21 25.5, 18 28.5, 16 31.5 L 16 36 L 31 36 C 31 29, 32 22, 31 17 Z" fill="#242424" />
    <!-- Muzzle -->
    <path d="M 14 24.5 Q 16 21.5 19 22.5" stroke="#000000" stroke-width="1" />
    <circle cx="15" cy="22.5" r="0.8" fill="#000000" />
    <!-- Eye -->
    <circle cx="19.5" cy="15.5" r="1.3" fill="#E8E8E8" stroke="#000000" stroke-width="0.6" />
    <circle cx="19.9" cy="15.5" r="0.55" fill="#000000" />
    <!-- Harness -->
    <path d="M 23 10 C 22 14, 20 18, 18 21" stroke="#000000" stroke-width="1" />
    <path d="M 15.5 14.5 Q 21 16.5 26 18.5" stroke="#000000" stroke-width="1" />
    <circle cx="21" cy="17.5" r="2" fill="#D4AF37" stroke="#000000" stroke-width="1" />
    <path d="M 16 31.5 Q 23 33.5 31 31.5" stroke="#000000" stroke-width="1.5" />
    <path d="M 12 35 Q 11.2 37.2 10 39 L 34 39 Q 32.8 37.2 32 35 Z" fill="#1C1C1C" />
    <rect x="8" y="39" width="28" height="3" rx="1.5" fill="#333333" />
  </g>
</svg>
