<svg xmlns="http://www.w3.org/2000/svg" viewBox="0 0 44 44" width="100%" height="100%">
  <g fill="none" stroke="#000000" stroke-width="1.6" stroke-linecap="round" stroke-linejoin="round">
    <!-- Crest plume -->
    <path d="M 15.5 15.5 C 15.5 10, 28.5 10, 28.5 15.5 C 25 13, 19 13, 15.5 15.5 Z" fill="#5B1A8C" />
    <!-- Galea helmet dome -->
    <path d="M 16.5 19.5 C 16.5 13.5, 27.5 13.5, 27.5 19.5 Z" fill="#242424" />
    <path d="M 22 14 L 22 19.5" stroke="#000000" stroke-width="1" />
    <!-- Cheek guards -->
    <path d="M 16.5 19.5 L 17.5 23 L 19.5 22 Z" fill="#1C1C1C" />
    <path d="M 27.5 19.5 L 26.5 23 L 24.5 22 Z" fill="#1C1C1C" />
    <!-- Tunic -->
    <path d="M 19.5 23 L 17 27 L 27 27 L 24.5 23 Z" fill="#3B1060" />
    <!-- Lorica -->
    <path d="M 19.5 23 Q 22 25 24.5 23 L 26 27 Q 22 28.5 18 27 Z" fill="#1C1C1C" />
    <path d="M 18 27 L 17 36 L 27 36 L 26 27 Z" fill="#242424" />
    <!-- Pteruges -->
    <path d="M 19 32 L 19 36 M 21.4 32 L 21.4 36 M 23.8 32 L 23.8 36 M 26 32 L 26 36" stroke="#000000" stroke-width="1" />
    <path d="M 14 35 Q 13.2 37.2 12 39 L 32 39 Q 30.8 37.2 30 35 Z" fill="#1C1C1C" />
    <rect x="11" y="39" width="22" height="3" rx="1.5" fill="#333333" />
  </g>
</svg>
