<svg xmlns="http://www.w3.org/2000/svg" viewBox="0 0 44 44" width="100%" height="100%">
  <g fill="none" stroke="#000000" stroke-width="1.6" stroke-linecap="round" stroke-linejoin="round">
    <!-- Stephane diadem with gems -->
    <path d="M 13 13 L 16 5 L 22 8 L 28 5 L 31 13 Z" fill="#D4AF37" />
    <circle cx="16" cy="6" r="1" fill="#E8E8E8" stroke="#000000" stroke-width="0.5" />
    <circle cx="22" cy="8.6" r="1.1" fill="#5B1A8C" stroke="#000000" stroke-width="0.5" />
    <circle cx="28" cy="6" r="1" fill="#E8E8E8" stroke="#000000" stroke-width="0.5" />
    <!-- Hair & face -->
    <path d="M 16 13 C 16 9.3, 28 9.3, 28 13 Z" fill="#101010" />
    <path d="M 17 13 C 17 16.6, 27 16.6, 27 13" fill="#242424" />
    <!-- Palla veil -->
    <path d="M 14 13 C 11 21, 10 27, 12 36 L 32 36 C 34 27, 33 21, 30 13 Z" fill="#5B1A8C" />
    <!-- Stola gown -->
    <path d="M 18 16 Q 22 19 26 16 L 28 36 L 16 36 Z" fill="#242424" />
    <path d="M 20 20.5 Q 22 24 24 20.5" stroke="#000000" stroke-width="1" />
    <path d="M 19 25.5 Q 22 29 25 25.5" stroke="#000000" stroke-width="1" />
    <path d="M 18 30.5 Q 22 34 26 30.5" stroke="#000000" stroke-width="1" />
    <path d="M 12 35 Q 11.2 37.2 10 39 L 34 39 Q 32.8 37.2 32 35 Z" fill="#1C1C1C" />
    <rect x="8" y="39" width="28" height="3" rx="1.5" fill="#333333" />
  </g>
</svg>
