<svg xmlns="http://www.w3.org/2000/svg" viewBox="0 0 44 44" width="100%" height="100%">
  <g fill="none" stroke="#111111" stroke-width="1.5" stroke-linecap="round" stroke-linejoin="round">
    <!-- Helmet Crest (Bright Crimson Plume) -->
    <path d="M 16 16 C 16 12, 28 12, 28 16" fill="#D32F2F" />
    <path d="M 19 13 C 21 11, 23 11, 25 13" stroke="#111111" stroke-width="1" />
    
    <!-- Roman Galea (Helmet) - Stark White/Silver -->
    <path d="M 17 20 C 17 16, 27 16, 27 20 Z" fill="#FFFFFF" />
    
    <!-- Cheek Guards -->
    <path d="M 17 20 L 18 24 L 20 23 Z" fill="#F5F5F5" />
    <path d="M 27 20 L 26 24 L 24 23 Z" fill="#F5F5F5" />
    <path d="M 17 20 Q 22 18 27 20" />

    <!-- Tunic Underlayer (Bright Red) -->
    <path d="M 20 24 L 17 28 L 27 28 L 24 24 Z" fill="#E53935" />

    <!-- Torso / Lorica (Polished White Armor - Centered on Base) -->
    <path d="M 20 24 Q 22 25.5 24 24 L 25.5 28 Q 22 29.5 18.5 28 Z" fill="#E0E0E0" />
    <path d="M 18.5 28 L 17.5 35 L 26.5 35 L 25.5 28 Z" fill="#FFFFFF" />
    
    <!-- Pteruges -->
    <path d="M 19.5 32 L 19.5 35 M 21 32 L 21 35 M 23 32 L 23 35 M 24.5 32 L 24.5 35" stroke="#111111" stroke-width="1" />
    
    <!-- Mini Pedestal Base -->
    <path d="M 15 35 L 29 35 L 31 39 L 13 39 Z" fill="#E0E0E0" />
    <rect x="13" y="39" width="18" height="3" rx="1" fill="#FFFFFF" />
  </g>
</svg>
