<svg xmlns="http://www.w3.org/2000/svg" viewBox="0 0 44 44" width="100%" height="100%">
  <g fill="none" stroke="#111111" stroke-width="1.5" stroke-linecap="round" stroke-linejoin="round">
    <!-- Watchtower Battlement / Crenellations (Top Castle Layer) -->
    <path d="M 12 10 L 12 15 L 32 15 L 32 10 L 29 10 L 29 12 L 25 12 L 25 10 L 19 10 L 19 12 L 15 12 L 15 10 Z" fill="#FFFFFF" />
    
    <!-- Arrow Slit / Window -->
    <rect x="20" y="17" width="4" height="6" rx="1" fill="#111111" />
    
    <!-- Main Tower Body (Slanted Stone/Brick Wall) -->
    <path d="M 14 15 L 12 35 L 32 35 L 30 15 Z" fill="#E0E0E0" />
    
    <!-- Roman Eagle (Aquila) Shield Emblem on Wall -->
    <path d="M 18 27 L 22 25 L 26 27 L 24 31 L 20 31 Z" fill="#D32F2F" />
    
    <!-- Pedestal Base (Heavy Foundation) -->
    <path d="M 9 35 L 35 35 L 37 39 L 7 39 Z" fill="#E0E0E0" />
    <rect x="5" y="39" width="34" height="3" rx="1" fill="#FFFFFF" />
  </g>
</svg>
